<?xml version="1.0" encoding="utf-8"?>
<!-- Generator: Adobe Illustrator 17.1.0, SVG Export Plug-In . SVG Version: 6.00 Build 0)  -->
<!DOCTYPE svg PUBLIC "-//W3C//DTD SVG 1.1//EN" "http://www.w3.org/Graphics/SVG/1.1/DTD/svg11.dtd">
<svg version="1.1" id="Layer_1" xmlns="http://www.w3.org/2000/svg" xmlns:xlink="http://www.w3.org/1999/xlink" x="0px" y="0px"
	 viewBox="0 0 46.8 83.6" style="enable-background:new 0 0 46.8 83.6;" xml:space="preserve">
<g>
	<defs>
		<rect id="SVGID_1_" y="0" width="46.8" height="83.6"/>
	</defs>
	<clipPath id="SVGID_2_">
		<use xlink:href="#SVGID_1_"  style="overflow:visible;"/>
	</clipPath>
	
		<path style="clip-path:url(#SVGID_2_);fill:none;stroke:#82bc00;stroke-width:2;stroke-linecap:round;stroke-linejoin:round;stroke-miterlimit:10;" d="
		M20.4,1h5.8c1.7,0,3,1.3,3,3v39.9c0,0.6,0.7,0.8,1.1,0.4l7.5-7.5c1.2-1.2,3.1-1.2,4.3,0l2.8,2.8c1.2,1.2,1.2,3.1,0,4.2L26,63.1
		c-1.2,1.2-3.1,1.2-4.3,0L2,43.8c-1.2-1.2-1.2-3.1,0-4.3l2.7-2.7c1.2-1.2,3.1-1.2,4.3,0l7.2,7.5c0.5,0.5,1.2,0.1,1.2-0.5V4
		C17.4,2.3,18.8,1,20.4,1z"/>
	
		<path style="clip-path:url(#SVGID_2_);fill:none;stroke:#82bc00;stroke-width:2;stroke-linecap:round;stroke-linejoin:round;stroke-miterlimit:10;" d="
		M42.2,82.6H4.6C2.6,82.6,1,81,1,79v-2.8c0-2,1.6-3.6,3.6-3.6h37.5c2,0,3.6,1.6,3.6,3.6V79C45.8,81,44.2,82.6,42.2,82.6z"/>
	
		<line style="clip-path:url(#SVGID_2_);fill:none;stroke:#82bc00;stroke-width:2;stroke-linecap:round;stroke-linejoin:round;stroke-miterlimit:10;" x1="23.4" y1="6" x2="23.4" y2="18.3"/>
</g>
</svg>
