<?xml version="1.0" encoding="UTF-8"?>
<svg width="46px" height="46px" viewBox="0 0 46 46" version="1.1" xmlns="http://www.w3.org/2000/svg" xmlns:xlink="http://www.w3.org/1999/xlink">
    <title>information</title>
    <g id="Page-1" stroke="none" stroke-width="1" fill="none" fill-rule="evenodd">
        <g id="1.0-Home-Reminder-Expanded-2" transform="translate(-361.000000, -1392.000000)">
            <g id="information" transform="translate(361.000000, 1392.000000)">
                <circle id="Oval-Copy-2" fill="#FFFFFF" cx="23" cy="23" r="23"></circle>
                <path d="M23,8 C20.793986,8 19,9.79389224 19,12 C19,14.2061078 20.7938922,16 23,16 C25.2061078,16 27,14.2061078 27,12 C27,9.79389224 25.206014,8 23,8 Z M23,13.9999531 C21.8975086,13.9999531 21.0000469,13.1024914 21.0000469,12 C21.0000469,10.8975086 21.8975086,10.0000469 23,10.0000469 C24.1024914,10.0000469 24.9999531,10.8975086 24.9999531,12 C24.9999531,13.1024914 24.1024914,13.9999531 23,13.9999531 Z" id="Shape" fill="#8E66C1" fill-rule="nonzero"></path>
                <path d="M26.9998875,19 L19.0000187,19 C18.4472757,19 18,19.4269479 18,19.9545699 L18,23.7727598 C18,24.3003818 18.4472757,24.7273297 19.0000187,24.7273297 L20.0000375,24.7273297 L20.0000375,39.0454301 C20.0000375,39.5730521 20.4473132,40 21.0000562,40 L26.9999813,40 C27.5527243,40 28,39.5730521 28,39.0454301 L28,19.9545699 C28,19.4269479 27.5526306,19 26.9998875,19 Z M25.9998688,38.0907708 L21.9998875,38.0907708 L21.9998875,23.7726703 C21.9998875,23.2450483 21.5526118,22.8181005 20.9998688,22.8181005 L19.99985,22.8181005 L19.99985,20.9090502 L25.999775,20.9090502 L25.999775,38.0907708 L25.9998688,38.0907708 Z" id="Shape" fill="#8E66C1" fill-rule="nonzero"></path>
            </g>
        </g>
    </g>
</svg>